<svg width="48" height="48" viewBox="0 0 48 48" fill="none" xmlns="http://www.w3.org/2000/svg">
<rect width="48" height="48" fill="white"/>
<path d="M42 13.976L31.377 7.255L24 13.314L35.026 19.732L42 13.976ZM6 25.647L16.933 32.055L24 26.633L13.528 19.969L6 25.647ZM16.933 7.255L6 14.301L13.528 19.969L24 13.314L16.933 7.255ZM24 26.633L31.209 32.055L42 25.647L35.026 19.732L24 26.633Z" fill="#1E88E5"/>
<path d="M32.195 33.779L31.047 34.462L29.979 33.658L24 29.162L18.155 33.646L17.091 34.464L15.933 33.785L13 32.066V34.738L23.988 42L35 34.794V32.114L32.195 33.779Z" fill="#1E88E5"/>
</svg>
