<svg width="60" height="48" viewBox="0 0 60 48" fill="none" xmlns="http://www.w3.org/2000/svg">
<g clip-path="url(#clip0_336_361)">
<path d="M52.6754 5.7356H7.33706C3.28988 5.7356 0 8.3675 0 11.6052V36.3948C0 39.6326 3.28988 42.2645 7.33706 42.2645H52.6629C56.7101 42.2645 60 39.6326 60 36.3948V11.6152C60.0124 8.37743 56.7225 5.7356 52.6754 5.7356ZM56.6605 36.3948C56.6605 38.1527 54.8727 39.5829 52.6754 39.5829H7.33706C5.13966 39.5829 3.35196 38.1527 3.35196 36.3948V11.6152C3.35196 9.85726 5.13966 8.42709 7.33706 8.42709H52.6629C54.8603 8.42709 56.648 9.85726 56.648 11.6152V36.3948H56.6605Z" fill="#337AB7"/>
<path d="M37.8403 23.6922L52.5144 13.1645C53.1972 12.6679 53.2593 11.8238 52.6385 11.2676C52.0178 10.7213 50.9625 10.6717 50.2673 11.1683L30.0315 25.6984L26.0836 22.8778C26.0712 22.8678 26.0588 22.8579 26.0588 22.848C25.9719 22.7784 25.885 22.7188 25.7856 22.6593L9.72108 11.1583C9.02586 10.6617 7.97062 10.7114 7.34989 11.2676C6.72915 11.8238 6.79123 12.6679 7.48645 13.1645L22.3344 23.7815L7.54852 34.8554C6.87813 35.3619 6.84088 36.2061 7.47403 36.7524C7.80923 37.0305 8.25615 37.1794 8.70308 37.1794C9.11277 37.1794 9.52245 37.0603 9.84523 36.8219L24.8545 25.5891L28.9265 28.4991C29.2493 28.7275 29.6466 28.8368 30.0439 28.8368C30.4411 28.8368 30.8508 28.7176 31.1612 28.4892L35.3449 25.4898L50.2673 36.8318C50.5901 37.0801 51.0122 37.1993 51.4219 37.1993C51.8688 37.1993 52.3033 37.0603 52.6385 36.7822C53.2717 36.2459 53.2468 35.3917 52.5765 34.8852L37.8403 23.6922Z" fill="#337AB7"/>
</g>
<defs>
<clipPath id="clip0_336_361">
<rect width="60" height="48" fill="white"/>
</clipPath>
</defs>
</svg>
