<svg width="40" height="41" viewBox="0 0 40 41" fill="none" xmlns="http://www.w3.org/2000/svg">
<path d="M39 20.4036C39 29.6769 32.4215 37.3874 23.708 39.1194V26.731H27.884H28.7421L28.8724 25.8829L29.6844 20.5977L29.8614 19.4458H28.696H23.706V17.5569C23.706 16.5401 23.8758 15.7036 24.1873 15.1572C24.4612 14.6766 24.8359 14.4136 25.464 14.4136H28.748H29.748V13.4136V8.80183V7.92832L28.8824 7.81091L28.8576 7.80754C28.242 7.72398 26.9791 7.55255 24.646 7.55255C22.0694 7.55255 19.8572 8.23895 18.3001 9.86662C16.7507 11.4863 16.01 13.872 16.01 16.9297V19.4458H12.062H11.062V20.4458V25.731V26.731H12.062H16.01V39.0589C7.43709 37.216 1 29.5758 1 20.4036C1 9.84781 9.51115 1.30005 20 1.30005C30.4889 1.30005 39 9.84781 39 20.4036Z" fill="white" stroke="#337AB7" stroke-width="2"/>
</svg>
