<svg width="140" height="140" viewBox="0 0 140 140" fill="none" xmlns="http://www.w3.org/2000/svg">
<path d="M70 0C89.3343 0 106.834 7.83854 119.492 20.5078C132.161 33.1771 140 50.6771 140 70C140 89.3343 132.161 106.834 119.492 119.492C106.823 132.161 89.3229 140 70 140C50.6771 140 33.1657 132.161 20.5078 119.492C7.83854 106.834 0 89.3343 0 70C0 50.6657 7.83854 33.1657 20.5078 20.5078C33.1657 7.83854 50.6657 0 70 0ZM52.9671 99.1553C59.8031 113.408 80.5274 113.91 87.0785 99.235C85.2897 97.4235 83.9681 95.498 82.6579 93.5726C82.4414 93.2536 82.2249 92.946 82.0085 92.627C78.8525 95.1335 75.013 96.7285 70.0114 96.7171C64.6224 96.7057 60.5664 94.6436 57.2396 91.6016C57.0459 91.4193 56.8408 91.237 56.6471 91.0433C56.1686 92.3649 55.5648 93.9486 54.9154 95.4297C54.2887 96.8539 53.6165 98.1869 52.9671 99.1553ZM105.57 122.853L107.119 106.356C101.388 105.239 95.2474 104.032 88.9014 100.374C84.1504 116.2 58.6182 118.079 51.429 100.785C45.7324 103.656 39.9333 105.296 33.3252 106.31L35.5697 123.594C45.4932 129.985 57.3193 133.7 70.0114 133.7C83.1706 133.7 95.4069 129.701 105.57 122.853ZM18.8672 107.996L19.1406 107.837C25.931 104.054 43.6019 102.801 50.9391 97.6856C51.4746 96.8766 52.0557 95.7031 52.6139 94.4271C53.457 92.5016 54.2204 90.4053 54.7103 88.9697C52.6595 86.5544 50.905 83.8314 49.2188 81.1426L43.6589 72.3014C41.6309 69.2708 40.5713 66.5023 40.5029 64.2236C40.4688 63.1527 40.651 62.1842 41.0498 61.3298C41.46 60.4297 42.098 59.6891 42.9639 59.1081C43.3626 58.8346 43.8184 58.6068 44.3083 58.4245C43.9437 53.6279 43.8184 47.5895 44.0462 42.5309C44.1602 41.3346 44.3994 40.127 44.7298 38.9307C46.154 33.8607 49.7087 29.7705 54.1178 26.9678C56.5446 25.4183 59.2106 24.2562 61.9906 23.4701C63.7565 22.9688 60.4867 17.3291 62.3096 17.1354C71.1393 16.224 85.415 24.2904 91.5788 30.9554C94.6663 34.2936 96.6032 38.7256 97.0247 44.5817L96.683 59.0055C98.221 59.4727 99.2122 60.4525 99.611 62.0361C100.055 63.7907 99.5768 66.263 98.0843 69.624C98.0615 69.681 98.0274 69.7494 97.9932 69.8063L91.6585 80.2425C89.3343 84.0706 86.9645 87.9216 83.8884 90.9522C84.1618 91.3509 84.4466 91.7497 84.7201 92.1598C85.9733 93.9941 87.238 95.8399 88.8558 97.4805C88.9128 97.5374 88.9583 97.5944 88.9925 97.6514C96.2842 102.801 114.035 104.054 120.848 107.848L121.121 108.008C129.017 97.4007 133.688 84.2529 133.688 70.0114C133.688 52.4203 126.556 36.4925 115.026 24.974C103.519 13.4326 87.5911 6.30046 70 6.30046C52.4089 6.30046 36.4811 13.4326 24.9626 24.9626C13.4326 36.4811 6.30046 52.4089 6.30046 70C6.30046 84.2415 10.9717 97.3893 18.8672 107.996ZM47.5212 60.9994C46.2907 61.0449 45.3564 61.307 44.7184 61.7285C44.3538 61.9678 44.0918 62.2868 43.9209 62.6514C43.7272 63.0615 43.6475 63.5628 43.6589 64.1439C43.7044 65.8301 44.5931 68.0404 46.3021 70.5925L46.3249 70.6266L51.8848 79.4678C54.1178 83.0111 56.4535 86.6227 59.3587 89.2774C62.1501 91.8294 65.5339 93.5612 70.0228 93.5726C74.8763 93.584 78.4196 91.7839 81.3021 89.0951C84.2985 86.2923 86.6569 82.4528 88.9925 78.6133L95.2588 68.3024C96.4209 65.6364 96.8538 63.8591 96.5804 62.8109C96.4209 62.1842 95.7373 61.888 94.5638 61.8197C94.3132 61.8083 94.0625 61.8083 93.8005 61.8083C93.527 61.8197 93.2308 61.8311 92.9232 61.8652C92.7523 61.8766 92.5928 61.8652 92.4447 61.8311C91.8864 61.8652 91.3167 61.8197 90.7243 61.7399L92.8662 52.2494C76.9613 54.7559 65.0553 42.9411 48.2389 49.891L49.4466 61.0791C48.7516 61.1133 48.1136 61.0905 47.5212 60.9994Z" fill="black"/>
</svg>
