<svg width="40" height="41" viewBox="0 0 40 41" fill="none" xmlns="http://www.w3.org/2000/svg">
<path d="M1 11.4112C1 5.82789 5.52784 1.30005 11.1111 1.30005H28.8889C34.4722 1.30005 39 5.82789 39 11.4112V29.1889C39 34.7722 34.4722 39.3 28.8889 39.3H11.1111C5.52784 39.3 1 34.7722 1 29.1889V11.4112ZM36.5556 6.96672C36.5556 5.18777 35.1123 3.74449 33.3333 3.74449C31.5544 3.74449 30.1111 5.18776 30.1111 6.96672C30.1111 8.74567 31.5544 10.1889 33.3333 10.1889C35.1123 10.1889 36.5556 8.74567 36.5556 6.96672ZM32.1111 20.3C32.1111 13.6122 26.6878 8.18894 20 8.18894C13.3122 8.18894 7.88889 13.6122 7.88889 20.3C7.88889 26.9879 13.3122 32.4112 20 32.4112C26.6878 32.4112 32.1111 26.9879 32.1111 20.3ZM15.9931 16.2931C17.0558 15.2304 18.4971 14.6334 20 14.6334C21.5029 14.6334 22.9442 15.2304 24.0069 16.2931C25.0696 17.3558 25.6667 18.7972 25.6667 20.3C25.6667 21.8029 25.0696 23.2443 24.0069 24.307C22.9442 25.3697 21.5029 25.9667 20 25.9667C18.4971 25.9667 17.0558 25.3697 15.9931 24.307C14.9304 23.2443 14.3333 21.8029 14.3333 20.3C14.3333 18.7972 14.9304 17.3558 15.9931 16.2931Z" fill="white" stroke="#337AB7" stroke-width="2"/>
</svg>
