<svg width="40" height="41" viewBox="0 0 40 41" fill="none" xmlns="http://www.w3.org/2000/svg">
<path d="M13.3333 32.4112H14.3333V31.4112V15.8556V14.8556H13.3333H7.72667H6.72667V15.8556V31.4112V32.4112H7.72667H13.3333ZM33.3333 32.4112H34.3333V31.4112V22.9089C34.3333 20.335 33.7628 18.3296 32.7029 16.9439C31.6203 15.5285 30.0977 14.8556 28.4489 14.8556C26.8366 14.8556 25.554 15.1554 24.5667 15.6998V14.8556H23.5667H17.96H16.96V15.8556V31.4112V32.4112H17.96H23.5667H24.5667V31.4112H23.5667L24.5667 31.4111V31.4108V31.4103V31.4097V31.4088V31.4078V31.4066V31.4053V31.4037V31.402V31.4V31.398V31.3957V31.3932V31.3906V31.3878V31.3848V31.3817V31.3783V31.3748V31.3712V31.3673V31.3633V31.3591V31.3548V31.3503V31.3456V31.3407V31.3357V31.3305V31.3252V31.3197V31.314V31.3081V31.3021V31.296V31.2896V31.2832V31.2765V31.2697V31.2627V31.2556V31.2483V31.2409V31.2333V31.2256V31.2177V31.2097V31.2015V31.1931V31.1846V31.1759V31.1671V31.1582V31.1491V31.1399V31.1305V31.1209V31.1112V31.1014V31.0915V31.0813V31.0711V31.0607V31.0502V31.0395V31.0287V31.0177V31.0066V30.9954V30.984V30.9725V30.9609V30.9491V30.9372V30.9252V30.913V30.9007V30.8883V30.8757V30.863V30.8502V30.8372V30.8242V30.811V30.7976V30.7842V30.7706V30.7569V30.7431V30.7291V30.715V30.7009V30.6866V30.6721V30.6576V30.6429V30.6281V30.6132V30.5982V30.5831V30.5678V30.5525V30.537V30.5214V30.5057V30.4899V30.474V30.458V30.4418V30.4256V30.4092V30.3928V30.3762V30.3596V30.3428V30.3259V30.3089V30.2919V30.2747V30.2574V30.24V30.2225V30.2049V30.1873V30.1695V30.1516V30.1336V30.1156V30.0974V30.0791V30.0608V30.0424V30.0238V30.0052V29.9865V29.9677V29.9488V29.9298V29.9108V29.8916V29.8724V29.853V29.8336V29.8141V29.7946V29.7749V29.7552V29.7353V29.7154V29.6955V29.6754V29.6553V29.635V29.6148V29.5944V29.5739V29.5534V29.5328V29.5122V29.4914V29.4706V29.4497V29.4288V29.4078V29.3867V29.3655V29.3443V29.323V29.3017V29.2802V29.2587V29.2372V29.2156V29.1939V29.1722V29.1504V29.1285V29.1066V29.0846V29.0626V29.0405V29.0183V28.9961V28.9738V28.9515V28.9292V28.9067V28.8843V28.8617V28.8391V28.8165V28.7938V28.7711V28.7483V28.7255V28.7026V28.6797V28.6567V28.6337V28.6107V28.5876V28.5645V28.5413V28.5181V28.4948V28.4715V28.4481V28.4248V28.4014V28.3779V28.3544V28.3309V28.3073V28.2837V28.2601V28.2364V28.2128V28.189V28.1653V28.1415V28.1177V28.0938V28.07V28.0461V28.0222V27.9982V27.9742V27.9503V27.9262V27.9022V27.8781V27.854V27.8299V27.8058V27.7817V27.7575V27.7333V27.7091V27.6849V27.6607V27.6364V27.6122V27.5879V27.5636V27.5393V27.515V27.4907V27.4664V27.4421V27.4177V27.3934V27.369V27.3446V27.3203V27.2959V27.2715V27.2471V27.2227V27.1983V27.174V27.1496V27.1252V27.1008V27.0764V27.052V27.0276V27.0033V26.9789V26.9545V26.9301V26.9058V26.8814V26.8571V26.8328V26.8084V26.7841V26.7598V26.7355V26.7113V26.687V26.6627V26.6385V26.6143V26.5901V26.5659V26.5417V26.5175V26.4934V26.4693V26.4452V26.4211V26.3971V26.373V26.349V26.325V26.3011V26.2771V26.2532V26.2293V26.2055V26.1816V26.1578V26.1341V26.1103V26.0866V26.0629V26.0393V26.0157V25.9921V25.9685V25.945V25.9216V25.8981V25.8747V25.8513V25.828V25.8047V25.7815V25.7583V25.7351V25.712V25.6889V25.6659V25.6429V25.6199V25.597V25.5742V25.5514V25.5286V25.5059V25.4832V25.4606V25.438V25.4155V25.3931V25.3707V25.3483V25.326V25.3038V25.2816V25.2595V25.2374V25.2154V25.1934V25.1715V25.1497V25.1279V25.1062V25.0845V25.0629V25.0414V25.0199V24.9985V24.9772V24.9559V24.9347V24.9136V24.8925V24.8715V24.8506V24.8298V24.809V24.7883V24.7676V24.747V24.7266V24.7061V24.6858V24.6655V24.6453V24.6252V24.6052V24.5852V24.5654V24.5456V24.5259V24.5062V24.4867V24.4672V24.4478V24.4286V24.4093V24.3902V24.3712V24.3522V24.3334V24.3146V24.2959V24.2773V24.2588V24.2404V24.2221V24.2039V24.1858V24.1677V24.1498V24.132V24.1142V24.0966V24.079V24.0616V24.0442V24.027V24.0098V23.9928V23.9758V23.959V23.9423V23.9256V23.9091V23.8927V23.8764V23.8602V23.8441V23.8281V23.8122V23.7964V23.7808V23.7652V23.7498V23.7345V23.7193V23.7042V23.6892V23.6743V23.6596V23.645V23.6305V23.6161V23.6018V23.5877V23.5736V23.5597V23.546V23.5323V23.5188V23.5054V23.4921V23.4789V23.4659V23.453V23.4402V23.4276V23.415V23.4026V23.3904V23.3783V23.3663V23.3544V23.3427V23.3311V23.3196V23.3083V23.2971V23.2861V23.2752V23.2644V23.2538V23.2433V23.233V23.2228V23.2127V23.2028V23.193V23.1834V23.1739V23.1645V23.1553V23.1463V23.1374V23.1287V23.1201V23.1116V23.1033V23.0952V23.0872V23.0793V23.0716V23.0641V23.0567V23.0495V23.0425V23.0355V23.0288V23.0222V23.0158V23.0095V23.0034V22.9974V22.9917V22.986V22.9806V22.9753V22.9702V22.9652V22.9604V22.9558V22.9513V22.947V22.9429V22.9389V22.9352V22.9316V22.9281V22.9249V22.9218V22.9188V22.9161V22.9135V22.9111V22.9089C24.5667 21.9129 24.9058 21.4958 25.1552 21.3006C25.456 21.0652 25.8081 21.0156 25.9178 21.0156C25.9153 21.0156 25.9156 21.0156 25.9184 21.016C25.9304 21.0176 25.988 21.0251 26.0753 21.0612C26.1749 21.1024 26.2937 21.1729 26.4085 21.2877C26.6194 21.4987 26.9067 21.9514 26.9067 22.9089V31.4112V32.4112H27.9067H33.3333ZM4.44444 1.30005H35.5556C37.4588 1.30005 39 2.84122 39 4.74449V35.8556C39 37.7589 37.4588 39.3 35.5556 39.3H4.44444C2.54117 39.3 1 37.7589 1 35.8556V4.74449C1 2.84122 2.54117 1.30005 4.44444 1.30005ZM6.57333 10.3378C6.57333 11.3592 6.96137 12.2925 7.67033 12.9672C8.37755 13.6403 9.34837 14.0045 10.4311 14.0045C11.5829 14.0045 12.6002 13.6566 13.3414 12.9827C14.0882 12.3036 14.4778 11.361 14.4778 10.3378C14.4778 9.31642 14.0897 8.38315 13.3808 7.70844C12.6736 7.03538 11.7027 6.67116 10.62 6.67116C9.46819 6.67116 8.45087 7.01907 7.70975 7.69296C6.96286 8.37209 6.57333 9.31461 6.57333 10.3378Z" fill="white" stroke="#337AB7" stroke-width="2"/>
</svg>
