<svg width="48" height="48" viewBox="0 0 48 48" fill="none" xmlns="http://www.w3.org/2000/svg">
<g clip-path="url(#clip0_63_244)">
<path d="M23.9993 0C14.8146 0 7.34247 7.47323 7.34247 16.6581C7.34247 25.4994 22.4555 46.1557 23.099 47.0304L23.6995 47.8478C23.7698 47.9438 23.8816 48 23.9993 48C24.1188 48 24.2299 47.9438 24.3008 47.8478L24.901 47.0304C25.5449 46.1557 40.6575 25.4994 40.6575 16.6581C40.6575 7.47323 33.1842 0 23.9993 0ZM23.9993 10.6912C27.2902 10.6912 29.9662 13.3674 29.9662 16.6581C29.9662 19.9472 27.29 22.6251 23.9993 22.6251C20.7103 22.6251 18.0324 19.9472 18.0324 16.6581C18.0324 13.3674 20.7102 10.6912 23.9993 10.6912Z" fill="white"/>
</g>
<defs>
<clipPath id="clip0_63_244">
<rect width="48" height="48" fill="white"/>
</clipPath>
</defs>
</svg>
