<svg width="45" height="43" viewBox="0 0 45 43" fill="none" xmlns="http://www.w3.org/2000/svg">
<g clip-path="url(#clip0_336_353)">
<rect x="1" y="1" width="43" height="41" fill="white"/>
<path d="M34.9835 26.398C34.1032 25.524 33.0414 25.0567 31.916 25.0567C30.7997 25.0567 29.7288 25.5153 28.8122 26.3893L25.9444 29.1151C25.7084 28.994 25.4725 28.8815 25.2456 28.769C24.9189 28.6132 24.6103 28.4661 24.3471 28.3104C21.6608 26.6835 19.2195 24.5635 16.878 21.8204C15.7436 20.4531 14.9812 19.3022 14.4276 18.134C15.1718 17.485 15.8616 16.8101 16.5332 16.1611C16.7873 15.9188 17.0414 15.6678 17.2955 15.4255C19.2013 13.6083 19.2013 11.2546 17.2955 9.43744L14.8179 7.07509C14.5366 6.80683 14.2461 6.52993 13.9739 6.25302C13.4293 5.71651 12.8576 5.1627 12.2677 4.6435C11.3874 3.81278 10.3346 3.37146 9.22742 3.37146C8.12021 3.37146 7.04931 3.81278 6.14177 4.6435C6.13269 4.65215 6.13269 4.65215 6.12362 4.66081L3.03797 7.6289C1.87631 8.73653 1.2138 10.0864 1.06859 11.6527C0.850783 14.1795 1.63127 16.5332 2.23025 18.0735C3.70047 21.855 5.89673 25.3596 9.17297 29.1151C13.148 33.6408 17.9308 37.2146 23.3942 39.7328C25.4815 40.676 28.2677 41.7922 31.3806 41.9826C31.5712 41.9913 31.7708 41.9999 31.9523 41.9999C34.0488 41.9999 35.8094 41.2817 37.1889 39.8539C37.1979 39.8366 37.2161 39.8279 37.2252 39.8106C37.6971 39.2655 38.2416 38.7722 38.8134 38.2444C39.2036 37.8896 39.6029 37.5175 39.9932 37.1281C40.8916 36.2368 41.3636 35.1984 41.3636 34.1341C41.3636 33.061 40.8826 32.0313 39.9659 31.166L34.9835 26.398ZM38.2325 35.5099C38.2235 35.5099 38.2235 35.5186 38.2325 35.5099C37.8786 35.8734 37.5156 36.2022 37.1253 36.5656C36.5354 37.1021 35.9365 37.6646 35.3738 38.2963C34.4572 39.2309 33.3772 39.6722 31.9614 39.6722C31.8253 39.6722 31.6801 39.6722 31.5439 39.6635C28.8485 39.4991 26.3437 38.4953 24.4651 37.6386C19.3284 35.2676 14.8179 31.9015 11.0697 27.6354C7.97501 24.0789 5.90581 20.7906 4.53541 17.2601C3.6914 15.1054 3.38283 13.4266 3.51896 11.8431C3.60972 10.8306 4.01811 9.99126 4.77138 9.27303L7.8661 6.32225C8.3108 5.92419 8.78272 5.70786 9.24557 5.70786C9.81732 5.70786 10.2802 6.03669 10.5706 6.31359C10.5797 6.32225 10.5887 6.3309 10.5978 6.33955C11.1514 6.83279 11.6778 7.34334 12.2314 7.8885C12.5127 8.16541 12.8031 8.44231 13.0936 8.72787L15.5712 11.0902C16.5332 12.0075 16.5332 12.8555 15.5712 13.7728C15.308 14.0237 15.0539 14.2747 14.7907 14.5169C14.0283 15.2611 13.3023 15.9534 12.5127 16.6284C12.4946 16.6457 12.4764 16.6543 12.4674 16.6716C11.6869 17.4158 11.8321 18.1427 11.9954 18.6359C12.0045 18.6619 12.0136 18.6879 12.0227 18.7138C12.667 20.2022 13.5746 21.604 14.954 23.2741L14.9631 23.2828C17.4679 26.2249 20.1089 28.518 23.0221 30.2747C23.3942 30.4997 23.7754 30.6814 24.1384 30.8544C24.4651 31.0102 24.7737 31.1573 25.0368 31.3131C25.0731 31.3304 25.1094 31.3563 25.1457 31.3736C25.4543 31.5207 25.7447 31.59 26.0442 31.59C26.7975 31.59 27.2694 31.14 27.4237 30.9929L30.5275 28.0335C30.8361 27.7392 31.3261 27.3845 31.8979 27.3845C32.4606 27.3845 32.9234 27.7219 33.2047 28.0161C33.2138 28.0248 33.2138 28.0248 33.2229 28.0335L38.2235 32.8014C39.1582 33.6841 39.1582 34.5927 38.2325 35.5099Z" fill="#337AB7"/>
<path d="M24.238 10.7529C26.6157 11.1336 28.7757 12.2066 30.5 13.8507C32.2244 15.4949 33.3406 17.5544 33.749 19.8215C33.8489 20.3927 34.3662 20.7907 34.9561 20.7907C35.0287 20.7907 35.0922 20.7821 35.1648 20.7734C35.8364 20.6696 36.2811 20.0638 36.1722 19.4235C35.6821 16.6804 34.3208 14.1796 32.2425 12.198C30.1642 10.2163 27.5414 8.91834 24.6645 8.45106C23.9929 8.34722 23.3667 8.77124 23.2488 9.40293C23.1308 10.0346 23.5664 10.649 24.238 10.7529Z" fill="#337AB7"/>
<path d="M43.9498 19.086C43.142 14.5689 40.9095 10.4586 37.479 7.18763C34.0485 3.91668 29.7376 1.78796 25.0002 1.01781C24.3377 0.905317 23.7115 1.33798 23.5935 1.96968C23.4846 2.61002 23.9293 3.2071 24.6009 3.3196C28.8301 4.00321 32.6871 5.9156 35.7546 8.83177C38.8221 11.7566 40.8187 15.4343 41.5357 19.4667C41.6355 20.0378 42.1528 20.4359 42.7427 20.4359C42.8153 20.4359 42.8789 20.4272 42.9515 20.4186C43.614 20.3234 44.0677 19.7177 43.9498 19.086Z" fill="#337AB7"/>
</g>
<rect x="1" y="1" width="43" height="41" stroke="white"/>
<defs>
<clipPath id="clip0_336_353">
<rect x="1" y="1" width="43" height="41" fill="white"/>
</clipPath>
</defs>
</svg>
