<svg width="100" height="101" viewBox="0 0 100 101" fill="none" xmlns="http://www.w3.org/2000/svg">
<path d="M100 50.0357C100 77.4359 77.6142 99.6481 50 99.6481C22.3858 99.6481 0 77.4359 0 50.0357C0 22.6356 22.3858 0.42334 50 0.42334C77.6142 0.42334 100 22.6356 100 50.0357Z" fill="#D9D9D9"/>
<g clip-path="url(#clip0_280_116)">
<path fill-rule="evenodd" clip-rule="evenodd" d="M50 1.19849C77.5958 1.19849 100 23.429 100 50.8109C100 78.1928 77.5958 100.423 50 100.423C22.4042 100.423 0 78.1928 0 50.8109C0 23.429 22.4042 1.19849 50 1.19849ZM50 5.33285C75.2958 5.33285 95.8333 25.7111 95.8333 50.8109C95.8333 75.9106 75.2958 96.2889 50 96.2889C24.7042 96.2889 4.16667 75.9106 4.16667 50.8109C4.16667 25.7111 24.7042 5.33285 50 5.33285ZM79.1667 36.1628L41.6458 75.708L20.8333 51.46L24.0042 48.7768L41.8 69.5148L76.1333 33.3308L79.1667 36.1628Z" fill="black"/>
</g>
<defs>
<clipPath id="clip0_280_116">
<rect width="100" height="99.2248" fill="white" transform="translate(0 1.19849)"/>
</clipPath>
</defs>
</svg>
