<svg width="41" height="41" viewBox="0 0 41 41" fill="none" xmlns="http://www.w3.org/2000/svg">
<path fill-rule="evenodd" clip-rule="evenodd" d="M29.772 24.3035C29.2744 24.0556 26.8278 22.8577 26.3716 22.6922C25.9155 22.5269 25.5838 22.4444 25.252 22.9401C24.9203 23.4358 23.9665 24.5514 23.6762 24.882C23.386 25.2125 23.0957 25.254 22.598 25.0059C22.1004 24.7581 20.4969 24.2352 18.5962 22.5477C17.1168 21.2345 16.1181 19.6127 15.8278 19.1169C15.5375 18.6211 15.7968 18.3531 16.0459 18.1061C16.2699 17.8842 16.5437 17.5276 16.7925 17.2384C17.0413 16.9493 17.1242 16.7426 17.2901 16.4122C17.456 16.0816 17.373 15.7925 17.2485 15.5446C17.1242 15.2967 16.1289 12.8589 15.7142 11.8671C15.3103 10.9015 14.9 11.0323 14.5946 11.017C14.3046 11.0027 13.9725 10.9996 13.6408 10.9996C13.3091 10.9996 12.7699 11.1236 12.3137 11.6192C11.8577 12.1151 10.572 13.3133 10.572 15.7509C10.572 18.1888 12.3551 20.5437 12.604 20.8742C12.8529 21.2049 16.113 26.2073 21.1053 28.3525C22.2925 28.8629 23.2194 29.1675 23.9422 29.3958C25.1343 29.7728 26.2191 29.7195 27.0766 29.592C28.0327 29.4499 30.0209 28.394 30.4356 27.2372C30.8503 26.0801 30.8503 25.0885 30.7258 24.882C30.6014 24.6754 30.2697 24.5514 29.772 24.3035ZM20.692 36.6421H20.6854C17.715 36.6409 14.8016 35.8467 12.26 34.3457L11.6555 33.9886L5.39028 35.6243L7.06253 29.5449L6.66903 28.9216C5.01197 26.2986 4.13674 23.2671 4.13803 20.1542C4.14168 11.0709 11.5677 3.68092 20.6986 3.68092C25.1202 3.68249 29.2763 5.39834 32.4019 8.51242C35.5272 11.6263 37.2474 15.7654 37.2457 20.1674C37.2419 29.2515 29.816 36.6421 20.692 36.6421ZM34.7805 6.14614C31.0203 2.39959 26.0197 0.33539 20.6919 0.333252C9.71421 0.333252 0.77972 9.22444 0.775279 20.1529C0.773847 23.6464 1.6909 27.0561 3.43377 30.0622L0.608398 40.3333L11.1663 37.577C14.0754 39.1561 17.3506 39.9884 20.6839 39.9895H20.6922C31.6686 39.9895 40.6039 31.0974 40.6084 20.1688C40.6104 14.8726 38.5407 9.89262 34.7805 6.14614Z" fill="#337AB7"/>
</svg>
